<?xml version="1.0" standalone="no"?>
<!DOCTYPE svg PUBLIC "-//W3C//DTD SVG 20010904//EN"
 "http://www.w3.org/TR/2001/REC-SVG-20010904/DTD/svg10.dtd">
<svg version="1.0" xmlns="http://www.w3.org/2000/svg"
 width="320.000000pt" height="240.000000pt" viewBox="0 0 320.000000 240.000000"
 preserveAspectRatio="xMidYMid meet">
<metadata>
Created by potrace 1.15, written by Peter Selinger 2001-2017
</metadata>
<g transform="translate(0.000000,240.000000) scale(0.100000,-0.100000)"
fill="#000000" stroke="none">
<path d="M121 2294 c-11 -14 -23 -44 -26 -67 -3 -23 -5 -453 -3 -954 l3 -913
37 -36 36 -37 127 -5 126 -5 16 -38 c22 -56 112 -135 175 -154 65 -19 91 -19
155 0 63 19 143 88 173 150 l22 45 638 0 638 0 22 -45 c30 -62 110 -131 173
-150 64 -19 90 -19 155 0 63 19 153 98 176 155 l16 40 87 1 c130 0 183 11 210
43 l23 27 0 373 0 372 -31 30 c-29 27 -36 29 -129 32 l-100 4 -162 321 c-127
251 -173 332 -208 368 l-45 46 -145 7 c-80 3 -213 6 -296 6 l-151 0 -7 53 c-3
28 -6 107 -6 174 0 116 -1 123 -26 152 l-26 31 -813 0 -814 0 -20 -26z m1579
-769 l0 -685 -740 0 -740 0 0 685 0 685 740 0 740 0 0 -685z m863 -95 c98
-190 188 -355 200 -368 19 -19 37 -23 120 -29 l97 -6 0 -94 0 -93 -580 0 -580
0 0 470 0 470 283 -2 282 -3 178 -345z m417 -865 l0 -145 -100 0 -100 0 -14
34 c-8 19 -31 53 -53 76 -128 143 -361 112 -448 -60 l-24 -47 -389 -7 c-214
-4 -502 -4 -640 0 l-252 7 -29 52 c-54 96 -135 144 -241 145 -109 0 -215 -69
-256 -166 l-14 -34 -100 0 -100 0 0 145 0 145 1380 0 1380 0 0 -145z m-2223
-84 c52 -24 77 -68 77 -138 0 -61 -22 -99 -75 -125 -43 -23 -95 -23 -138 0
-48 24 -73 62 -78 119 -6 65 20 111 77 141 54 27 82 27 137 3z m1823 -3 c58
-30 83 -75 77 -141 -5 -57 -30 -95 -78 -119 -64 -33 -150 -14 -192 43 -50 69
-22 184 55 219 56 25 84 25 138 -2z"/>
<path d="M1929 1673 c-11 -13 -14 -78 -14 -327 l0 -311 335 3 c322 4 336 5
353 24 9 11 17 28 17 37 0 28 -247 516 -280 555 l-32 36 -183 0 c-158 0 -184
-2 -196 -17z m429 -308 l102 -205 -210 0 -210 0 0 205 0 205 108 0 107 0 103
-205z"/>
</g>
</svg>
